HIERARCHY
ROOT Hips
{
	OFFSET	0.00	0.00	0.00
	CHANNELS 6 Xposition Yposition Zposition Zrotation Xrotation Yrotation
	JOINT LeftUpLeg
	{
		OFFSET	 0.126116	-0.065224	 0.014019
		CHANNELS 3 Zrotation Xrotation Yrotation
		JOINT LeftLeg
		{
			OFFSET	 0.000000	 0.569914	 0.000000
			CHANNELS 3 Zrotation Xrotation Yrotation
			JOINT LeftFoot
			{
				OFFSET	 0.000000	 0.544423	 0.000000
				CHANNELS 3 Zrotation Xrotation Yrotation
				JOINT LeftToeBase
				{
					OFFSET	 0.000000	 0.207117	 0.000000
					CHANNELS 3 Zrotation Xrotation Yrotation
					End Site
					{
						OFFSET	 0.000000	 0.207117	 0.000000
					}
				}
			}
		}
	}
	JOINT RightUpLeg
	{
		OFFSET	-0.124023	-0.065224	 0.008373
		CHANNELS 3 Zrotation Xrotation Yrotation
		JOINT RightLeg
		{
			OFFSET	 0.000000	 0.570047	 0.000000
			CHANNELS 3 Zrotation Xrotation Yrotation
			JOINT RightFoot
			{
				OFFSET	 0.000000	 0.544354	 0.000000
				CHANNELS 3 Zrotation Xrotation Yrotation
				JOINT RightToeBase
				{
					OFFSET	 0.000000	 0.207540	 0.000000
					CHANNELS 3 Zrotation Xrotation Yrotation
					End Site
					{
						OFFSET	 0.000000	 0.207540	 0.000000
					}
				}
			}
		}
	}
	JOINT Spine
	{
		OFFSET	 0.000184	 0.117403	 0.007763
		CHANNELS 3 Zrotation Xrotation Yrotation
		JOINT Spine1
		{
			OFFSET	 0.000000	 0.137269	 0.000000
			CHANNELS 3 Zrotation Xrotation Yrotation
			JOINT Spine2
			{
				OFFSET	 0.000000	 0.156879	 0.000000
				CHANNELS 3 Zrotation Xrotation Yrotation
				JOINT LeftShoulder
				{
					OFFSET	 0.080501	 0.160143	 0.002496
					CHANNELS 3 Zrotation Xrotation Yrotation
					JOINT LeftArm
					{
						OFFSET	 0.000000	 0.164363	 0.000000
						CHANNELS 3 Zrotation Xrotation Yrotation
						JOINT LeftForeArm
						{
							OFFSET	 0.000000	 0.364576	 0.000000
							CHANNELS 3 Zrotation Xrotation Yrotation
							JOINT LeftHand
							{
								OFFSET	 0.000000	 0.360812	 0.000000
								CHANNELS 3 Zrotation Xrotation Yrotation
								JOINT LeftHandIndex1
								{
									OFFSET	 0.000000	 0.086006	 0.000000
									CHANNELS 3 Zrotation Xrotation Yrotation
									JOINT LeftHandIndex2
									{
										OFFSET	 0.000000	 0.047237	 0.000000
										CHANNELS 3 Zrotation Xrotation Yrotation
										JOINT LeftHandIndex3
										{
											OFFSET	-0.004284	 0.038165	 0.000551
											CHANNELS 3 Zrotation Xrotation Yrotation
											End Site
											{
												OFFSET	-0.004284	 0.038165	 0.000551
											}
										}
									}
								}
							}
						}
					}
				}
				JOINT Neck
				{
					OFFSET	 0.000000	 0.176489	 0.000000
					CHANNELS 3 Zrotation Xrotation Yrotation
					JOINT Head
					{
						OFFSET	 0.000000	 0.077941	 0.001747
						CHANNELS 3 Zrotation Xrotation Yrotation
						End Site
						{
							OFFSET	 0.000000	 0.077941	 0.001747
						}
					}
				}
				JOINT RightShoulder
				{
					OFFSET	-0.080363	 0.159706	-0.000306
					CHANNELS 3 Zrotation Xrotation Yrotation
					JOINT RightArm
					{
						OFFSET	 0.000000	 0.164196	 0.000000
						CHANNELS 3 Zrotation Xrotation Yrotation
						JOINT RightForeArm
						{
							OFFSET	 0.000000	 0.365611	 0.000000
							CHANNELS 3 Zrotation Xrotation Yrotation
							JOINT RightHand
							{
								OFFSET	 0.000000	 0.360648	 0.000000
								CHANNELS 3 Zrotation Xrotation Yrotation
								JOINT RightHandIndex1
								{
									OFFSET	 0.000000	 0.069977	 0.000000
									CHANNELS 3 Zrotation Xrotation Yrotation
									JOINT RightHandIndex2
									{
										OFFSET	 0.000000	 0.052305	 0.000000
										CHANNELS 3 Zrotation Xrotation Yrotation
										JOINT RightHandIndex3
										{
											OFFSET	 0.009002	 0.042196	 0.000782
											CHANNELS 3 Zrotation Xrotation Yrotation
											End Site
											{
												OFFSET	 0.009002	 0.042196	 0.000782
											}
										}
									}
								}
							}
						}
					}
				}
			}
		}
	}
}
MOTION
Frames:    9
Frame Time: 0.03333334
-0.018020	 1.255933	 0.114945	 5.004647	 0.307285	 173.950100	 177.246900	 16.011490	 33.324540	 3.103096	-30.418290	 1.425742	 52.836990	 48.984500	-69.223820	 4.912823	 28.009660	-6.307256	-165.808500	-1.074618	-26.133540	-0.720731	-8.303838	 2.112944	-52.324010	 51.897380	 51.567110	-0.376698	 31.171910	 1.633242	 1.459540	 3.763665	-14.755370	 10.013870	 10.184740	-8.265030	-8.657495	-8.446795	 25.421380	-112.565700	 3.131200	 88.314550	-12.102710	 50.354920	 36.726760	 31.345760	-1.571187	 1.008807	-28.573170	-4.688027	-96.218700	-8.017221	 12.509410	-5.833222	-7.228739	 12.664080	 2.804020	 4.963066	-4.014628	-0.346955	 1.520829	-13.918760	 1.351755	-2.158123	 8.672737	-21.707080	 109.128700	 0.672304	-88.594000	-13.682790	 68.666780	 13.043680	-5.089513	-0.470378	 41.381340	-18.492570	 17.027640	-101.610000	 2.014875	 8.306851	 8.960668	 15.202890	 20.247400	-6.343757	-8.239867	-2.131385	 0.447455
-0.018145	 1.257073	 0.114774	 5.002912	 0.284213	 173.992400	 177.226900	 16.059460	 33.334210	 3.107806	-30.456320	 1.445772	 52.534490	 48.933220	-68.988890	 4.912825	 28.009660	-6.307250	-165.786600	-1.008872	-26.097230	-0.729507	-8.403559	 2.067758	-52.136650	 51.766380	 51.476180	-0.380349	 31.176370	 1.636863	 1.458700	 3.754920	-14.765320	 10.049910	 10.183880	-8.281868	-8.694296	-8.470976	 25.414740	-112.544900	 3.105222	 88.310970	-12.570230	 50.153140	 37.018340	 32.070400	-1.603621	 1.027892	-29.146760	-4.662301	-96.025880	-7.993305	 12.529020	-5.839142	-7.228848	 12.659530	 2.803399	 4.963066	-4.014628	-0.346955	 1.499402	-13.886200	 1.362707	-2.150344	 8.743687	-21.797670	 109.102700	 0.692125	-88.604040	-13.658500	 68.693210	 13.101450	-5.097373	-0.471082	 41.317550	-18.754500	 17.051570	-101.614000	 1.994291	 8.251328	 8.960176	 15.202970	 20.259710	-6.347127	-8.239867	-2.131385	 0.447455
-0.018281	 1.258181	 0.114576	 4.995101	 0.256282	 174.045500	 177.195000	 16.116710	 33.354920	 3.113530	-30.502340	 1.470408	 52.236290	 48.880970	-68.760310	 4.912826	 28.009670	-6.307243	-165.744600	-0.894562	-26.050880	-0.747406	-8.606772	 2.011419	-52.006170	 51.662250	 51.466470	-0.384862	 31.181890	 1.641338	 1.454480	 3.747444	-14.780280	 10.066260	 10.166350	-8.296659	-8.708338	-8.475232	 25.412240	-112.519200	 3.073090	 88.306570	-13.016630	 49.974170	 37.282480	 32.762740	-1.634373	 1.046382	-29.794700	-4.645163	-95.792790	-7.963747	 12.553250	-5.846468	-7.228982	 12.653910	 2.802632	 4.963066	-4.014628	-0.346955	 1.472921	-13.845970	 1.376255	-2.139509	 8.837293	-21.911460	 109.070600	 0.716611	-88.616460	-12.178230	 68.880280	 11.822040	-6.202714	-0.572854	 41.228700	-18.557290	 16.774180	-101.735000	 1.968859	 8.182718	 8.959539	 15.203070	 20.274930	-6.351292	-8.239867	-2.131385	 0.447455
-0.018431	 1.259269	 0.114345	 4.980888	 0.222531	 174.109400	 177.150100	 16.184620	 33.387980	 3.120490	-30.558090	 1.500084	 51.939440	 48.826390	-68.536900	 4.912828	 28.009690	-6.307234	-165.692900	-0.746878	-25.994500	-0.771092	-8.875049	 1.943608	-51.911040	 51.571140	 51.510040	-0.390321	 31.188560	 1.646753	 1.446850	 3.740605	-14.799240	 10.061440	 10.132010	-8.308277	-8.698551	-8.459068	 25.414060	-112.488200	 3.034238	 88.301260	-13.450290	 49.815380	 37.524270	 33.433720	-1.663970	 1.064247	-30.528020	-4.638483	-95.513140	-7.927982	 12.582550	-5.855350	-7.229145	 12.647110	 2.801703	 4.963066	-4.014628	-0.346955	 1.440879	-13.797320	 1.392666	-2.125284	 8.955520	-22.050720	 109.031900	 0.746263	-88.631490	-8.037470	 69.291470	 8.076541	-9.233013	-0.850643	 41.095930	-17.549200	 15.966290	-102.044100	 1.938097	 8.099719	 8.958729	 15.203200	 20.293340	-6.356332	-8.239867	-2.131385	 0.447455
-0.018593	 1.260301	 0.114075	 4.960543	 0.184225	 174.182800	 177.092600	 16.261360	 33.432350	 3.128649	-30.623810	 1.533916	 51.653050	 48.772360	-68.325670	 4.912830	 28.009700	-6.307223	-165.632900	-0.569785	-25.929180	-0.800042	-9.202730	 1.866534	-51.854380	 51.497080	 51.606400	-0.396582	 31.196210	 1.652962	 1.435699	 3.734933	-14.821740	 10.035590	 10.081810	-8.316477	-8.665216	-8.422770	 25.420160	-112.452600	 2.989688	 88.295220	-13.863450	 49.679740	 37.740350	 34.067550	-1.691620	 1.081141	-31.326390	-4.644539	-95.194350	-7.886969	 12.616130	-5.865556	-7.229332	 12.639310	 2.800639	 4.963066	-4.014628	-0.346955	 1.404134	-13.741550	 1.411512	-2.107933	 9.095252	-22.211750	 108.987400	 0.780268	-88.648650	-4.776316	 69.534930	 5.165480	-11.529030	-1.059479	 40.948510	-16.881260	 15.376860	-102.279900	 1.902835	 8.004562	 8.957744	 15.203340	 20.314450	-6.362109	-8.239867	-2.131385	 0.447455
-0.018791	 1.261377	 0.113730	 4.931034	 0.136267	 174.275200	 177.013600	 16.357350	 33.494960	 3.139434	-30.710120	 1.576368	 51.348340	 48.713840	-68.106670	 4.912833	 28.009710	-6.307210	-165.558000	-0.340906	-25.847390	-0.838018	-9.631415	 1.770975	-51.834510	 51.433750	 51.772220	-0.404428	 31.205790	 1.660743	 1.419511	 3.730281	-14.849730	 9.982659	 10.007910	-8.320760	-8.601359	-8.359652	 25.431670	-112.408000	 2.933842	 88.287640	-14.300570	 49.554800	 37.952930	 34.729230	-1.720314	 1.098832	-32.283390	-4.668402	-94.795140	-7.835567	 12.658200	-5.878381	-7.229565	 12.629540	 2.799305	 4.963066	-4.014628	-0.346955	 1.358083	-13.671690	 1.435170	-2.084992	 9.274491	-22.414960	 108.931700	 0.822869	-88.670140	-1.638723	 69.702320	 2.403624	-13.672020	-1.252923	 40.769190	-16.336400	 14.853330	-102.503200	 1.858664	 7.885339	 8.956428	 15.203530	 20.340900	-6.369349	-8.239867	-2.131385	 0.447455
-0.018994	 1.262314	 0.113356	 4.896269	 0.086708	 174.370900	 176.924600	 16.456470	 33.565560	 3.151144	-30.803780	 1.620302	 51.076760	 48.661050	-67.917440	 4.912836	 28.009730	-6.307196	-165.481500	-0.097627	-25.762080	-0.878915	-10.092130	 1.673066	-51.854800	 51.393730	 51.980030	-0.412573	 31.215730	 1.668821	 1.400477	 3.728576	-14.867320	 9.908317	 9.917712	-8.313368	-8.514709	-8.274242	 25.431430	-112.361800	 2.875885	 88.279850	-14.691080	 49.462440	 38.128540	 35.308320	-1.745230	 1.114197	-33.232530	-4.720666	-94.344900	-7.782198	 12.701860	-5.891734	-7.229808	 12.619400	 2.797921	 4.963066	-4.014628	-0.346955	 1.310269	-13.599200	 1.459778	-2.060573	 9.462726	-22.617820	 108.874000	 0.867141	-88.692430	 1.025882	 69.790630	 0.091730	-15.446370	-1.411816	 40.586830	-15.951580	 14.429130	-102.656000	 1.812828	 7.761595	 8.954962	 15.203730	 20.368340	-6.376864	-8.239867	-2.131385	 0.447455
-0.019208	 1.263186	 0.112923	 4.851529	 0.032739	 174.476500	 176.817700	 16.564590	 33.648630	 3.164487	-30.910310	 1.668481	 50.816030	 48.609950	-67.741890	 4.912839	 28.009750	-6.307181	-165.399700	 0.177087	-25.668580	-0.925822	-10.618670	 1.566533	-51.915560	 51.373060	 52.243840	-0.421539	 31.226670	 1.677712	 1.376515	 3.732317	-14.831270	 9.801884	 9.789220	-8.268522	-8.393826	-8.140880	 25.354260	-112.310900	 2.812129	 88.271350	-15.063410	 49.401440	 38.282440	 35.844800	-1.768115	 1.128313	-34.203450	-4.854838	-93.668370	-7.723452	 12.749870	-5.906477	-7.230075	 12.608240	 2.796398	 4.963066	-4.014628	-0.346955	 1.257635	-13.519460	 1.486919	-2.035339	 9.666386	-22.794280	 108.810400	 0.915851	-88.716860	 3.562349	 69.821410	-2.079700	-17.104700	-1.559108	 40.388840	-15.676780	 13.966800	-102.619300	 1.762402	 7.625428	 8.953236	 15.203950	 20.398550	-6.385136	-8.239867	-2.131385	 0.447455
-0.019447	 1.263992	 0.112426	 4.800184	-0.026790	 174.591200	 176.695000	 16.683310	 33.744180	 3.179878	-31.032800	 1.720913	 50.567680	 48.561580	-67.582070	 4.912842	 28.009770	-6.307165	-165.313800	 0.477635	-25.566720	-0.977437	-11.196060	 1.452265	-52.008670	 51.368710	 52.552250	-0.431309	 31.238580	 1.687402	 1.349601	 3.737251	-14.788560	 9.670689	 9.642589	-8.213790	-8.247538	-7.984357	 25.270570	-112.255500	 2.742622	 88.262120	-15.427240	 49.358930	 38.420360	 36.352820	-1.789590	 1.141614	-35.226890	-5.026864	-92.927260	-7.659424	 12.802170	-5.922601	-7.230368	 12.596090	 2.794739	 4.963066	-4.014628	-0.346955	 1.200271	-13.432610	 1.516562	-2.006621	 9.890537	-22.986780	 108.741200	 0.968969	-88.743420	 5.977189	 69.807300	-4.116416	-18.655950	-1.695551	 40.175900	-15.471820	 13.540000	-102.549500	 1.707479	 7.477084	 8.951220	 15.204190	 20.431450	-6.394149	-8.239867	-2.131385	 0.447455
